<?xml version="1.0" encoding="UTF-8" standalone="no"?>
<svg
   xmlns:dc="http://purl.org/dc/elements/1.1/"
   xmlns:cc="http://creativecommons.org/ns#"
   xmlns:rdf="http://www.w3.org/1999/02/22-rdf-syntax-ns#"
   xmlns:svg="http://www.w3.org/2000/svg"
   xmlns="http://www.w3.org/2000/svg"
   id="svg15"
   version="1.1"
   viewBox="0 0 28.498383 35.001904"
   height="35.001904"
   width="28.498383">
  <metadata
     id="metadata21">
    <rdf:RDF>
      <cc:Work
         rdf:about="">
        <dc:format>image/svg+xml</dc:format>
        <dc:type
           rdf:resource="http://purl.org/dc/dcmitype/StillImage" />
        <dc:title>BDA6D652-EBCC-4AA0-8332-6AB528669E81</dc:title>
      </cc:Work>
    </rdf:RDF>
  </metadata>
  <defs
     id="defs19" />
  <!-- Generator: sketchtool 52.2 (67145) - http://www.bohemiancoding.com/sketch -->
  <title
     id="title2">BDA6D652-EBCC-4AA0-8332-6AB528669E81</title>
  <desc
     id="desc4">Created with sketchtool.</desc>
  <g
     style="fill:none;fill-rule:evenodd;stroke:none;stroke-width:1"
     transform="matrix(0.47497304,0,0,0.47605222,-0.23748652,-0.23802611)"
     id="Page-1">
    <g
       transform="translate(-900,-569)"
       id="2560-1440-СПБ-карта-метро-">
      <g
         transform="translate(902,571)"
         id="Group-2">
        <g
           style="stroke:#434343;stroke-width:3"
           id="Group">
          <g
             id="Group-3">
            <path
               style="fill:#00e0a9"
               id="Oval-8"
               d="M 28.5,70 C 28.5,70 57,44.143098 57,28.4375 57,12.731902 44.240115,0 28.5,0 12.759885,0 0,12.731902 0,28.4375 0,44.143098 28.5,70 28.5,70 Z" />
            <circle
               style="fill:#4a4a4a"
               r="18.5"
               cy="27.5"
               cx="28.5"
               id="Oval-8-Copy" />
          </g>
        </g>
        <g
           style="fill:#ffffff;fill-rule:nonzero"
           transform="translate(20,17)"
           id="public-transport-subway">
          <path
             id="Shape"
             d="M 8.4896088,0 C 3.8260391,0 0.0103912,0.5257732 0.0103912,4.2061856 v 9.9896904 c 0,1.997938 1.6958435,3.680413 3.7096577,3.680413 l -1.5898533,1.577319 v 0.525773 H 14.849022 v -0.525773 l -1.589853,-1.577319 c 2.013814,0 3.709657,-1.682475 3.709657,-3.680413 V 4.2061856 C 16.968826,0.5257732 13.153178,0 8.4896088,0 Z M 3.7200489,15.773196 c -0.8479218,0 -1.5898533,-0.736083 -1.5898533,-1.57732 0,-0.841237 0.7419315,-1.577319 1.5898533,-1.577319 0.8479218,0 1.5898533,0.736082 1.5898533,1.577319 0,0.841237 -0.7419315,1.57732 -1.5898533,1.57732 z M 7.4297066,9.4639175 H 2.1301956 V 4.2061856 h 5.299511 z m 5.8294624,6.3092785 c -0.847922,0 -1.589854,-0.736083 -1.589854,-1.57732 0,-0.841237 0.741932,-1.577319 1.589854,-1.577319 0.847922,0 1.589853,0.736082 1.589853,1.577319 0,0.841237 -0.741931,1.57732 -1.589853,1.57732 z M 14.849022,9.4639175 H 9.549511 V 4.2061856 h 5.299511 z" />
        </g>
      </g>
    </g>
  </g>
</svg>
