<?xml version="1.0" encoding="UTF-8" standalone="no"?>
<svg
   xmlns:dc="http://purl.org/dc/elements/1.1/"
   xmlns:cc="http://creativecommons.org/ns#"
   xmlns:rdf="http://www.w3.org/1999/02/22-rdf-syntax-ns#"
   xmlns:svg="http://www.w3.org/2000/svg"
   xmlns="http://www.w3.org/2000/svg"
   id="svg8"
   version="1.1"
   viewBox="0 0 9.016757 10.629697"
   height="10.629697mm"
   width="9.016757mm">
  <defs
     id="defs2" />
  <metadata
     id="metadata5">
    <rdf:RDF>
      <cc:Work
         rdf:about="">
        <dc:format>image/svg+xml</dc:format>
        <dc:type
           rdf:resource="http://purl.org/dc/dcmitype/StillImage" />
        <dc:title></dc:title>
      </cc:Work>
    </rdf:RDF>
  </metadata>
  <g
     transform="translate(-81.353769,-194.07997)"
     id="layer1">
    <path
       id="path36"
       d="m 82.283844,204.47608 c 0.288176,-0.34723 0.991003,-0.71787 0.282807,-1.36471 -0.708705,-0.4016 -0.526872,-0.29316 -1.073838,-0.78865 -0.212612,-1.15755 -0.118118,-3.28695 -0.118118,-3.28695 0,-3.72151 0.202108,-4.2502 1.793738,-4.69224 1.265317,-0.35141 4.14304,-0.35141 5.408357,0 1.577576,0.43814 1.793736,0.98474 1.793736,4.53582 0,3.07707 -0.008,3.61173 -1.363269,4.22648 -0.494394,0.56308 0.612092,1.1154 0.713389,1.37937 0.14459,0.3768 -0.999696,0.16532 -3.984415,0.16532 -3.014088,0 -3.757405,0.19314 -3.452387,-0.17444 z m 1.604393,-2.86827 c 0,-0.6114 -0.867907,-0.88081 -1.186308,-0.36563 -0.275481,0.44574 0.142353,1.0277 0.69423,0.92142 0.231664,-0.0446 0.492078,-0.26873 0.492078,-0.55579 z m 5.064384,0.0493 c -0.0021,-0.50558 -0.113281,-0.71073 -0.666184,-0.71073 -0.482869,0 -0.538118,0.23504 -0.538118,0.57956 0,0.53141 0.32086,0.66956 0.627404,0.65216 0.285032,-0.0162 0.578956,-0.0278 0.576898,-0.52099 z m -3.658158,-3.85951 c 0.05384,-0.75246 -0.03977,-1.24245 -0.264583,-1.38501 -0.518146,-0.32857 -1.916461,-0.2741 -2.279352,0.0888 -0.343033,0.34303 -0.437367,2.12027 -0.128913,2.42872 0.103723,0.10372 0.728801,0.15333 1.389062,0.11025 l 1.200476,-0.0784 z m 3.956847,-0.11792 c 0.04577,-0.55586 -0.07728,-1.45993 -0.07728,-1.45993 0,0 -0.84712,0.0416 -1.360793,-0.003 -0.497188,-0.0436 -0.996487,-0.0723 -1.212075,0.14329 -0.187521,0.18752 -0.06449,0.82725 -0.0782,1.39772 -0.01137,0.47309 -0.07243,1.03291 0.0674,1.17274 0.103723,0.10372 0.728801,0.15333 1.389062,0.11025 0.637271,-0.0416 0.936636,-0.0651 1.090017,-0.23321 0.131661,-0.14434 0.143946,-0.0409 0.181866,-0.50144 z"
       style="fill:#fd3131;fill-opacity:1;stroke-width:0.26458332" />
  </g>
</svg>
